<?xml version="1.0" standalone="no"?>
<!DOCTYPE svg PUBLIC "-//W3C//DTD SVG 20010904//EN"
 "http://www.w3.org/TR/2001/REC-SVG-20010904/DTD/svg10.dtd">
<svg version="1.0" xmlns="http://www.w3.org/2000/svg"
 width="2673.000000pt" height="2674.000000pt" viewBox="0 0 2673.000000 2674.000000"
 preserveAspectRatio="xMidYMid meet">

<g transform="translate(0.000000,2674.000000) scale(0.100000,-0.100000)"
fill="#000000" stroke="none">
<path d="M12955 26713 c-2514 -84 -4885 -837 -6950 -2208 -2868 -1902 -4890
-4822 -5649 -8155 -523 -2299 -432 -4682 266 -6939 l24 -75 45 65 c25 35 1482
2158 3238 4717 l3193 4652 614 0 614 0 2 -4539 3 -4538 3115 4538 3115 4539
613 0 612 0 0 -330 0 -331 43 29 c83 57 322 195 471 272 1262 656 2722 786
4112 365 410 -125 824 -310 1154 -518 102 -64 304 -213 332 -243 16 -18 -3
-28 -505 -270 l-521 -251 -50 30 c-111 65 -371 189 -526 250 -394 156 -777
244 -1204 278 -214 17 -647 7 -853 -20 -609 -79 -1188 -262 -1646 -522 -907
-514 -1588 -1351 -1935 -2380 -384 -1134 -319 -2349 182 -3384 328 -680 827
-1245 1481 -1680 1318 -876 3028 -1019 4368 -365 547 266 1029 652 1412 1130
419 524 710 1127 907 1881 l53 204 3 2928 2 2927 535 0 535 0 0 -5345 0 -5345
-540 0 -540 0 0 1211 0 1211 -72 -94 c-292 -380 -683 -765 -1063 -1049 -427
-318 -862 -552 -1360 -732 -1261 -456 -2649 -430 -3900 73 -249 100 -638 301
-857 443 l-58 38 0 -551 0 -550 -540 0 -540 0 0 1023 0 1022 -56 65 c-275 322
-556 765 -751 1184 -533 1149 -655 2384 -351 3581 41 165 118 410 163 525 14
35 19 58 12 50 -8 -8 -1170 -1690 -2582 -3737 l-2568 -3723 -482 0 c-265 0
-564 3 -663 7 l-182 6 -2 4430 -3 4430 -3059 -4428 -3058 -4428 62 -141 c104
-234 349 -727 479 -966 1470 -2684 3806 -4784 6621 -5950 2124 -880 4463
-1193 6765 -905 2597 326 5033 1407 7025 3120 496 426 1023 955 1459 1464 796
929 1490 2020 2001 3146 1098 2422 1446 5123 1000 7760 -569 3367 -2413 6381
-5165 8446 -1847 1386 -4026 2266 -6320 2554 -669 83 -1438 120 -2080 98z"/>
</g>
</svg>
